<svg width="201" height="72" viewBox="0 0 201 72" fill="none" xmlns="http://www.w3.org/2000/svg">
<path d="M57.1311 26.1044C58.7865 26.1044 60.1285 24.7624 60.1285 23.1069C60.1285 21.4515 58.7865 20.1095 57.1311 20.1095C55.4757 20.1095 54.1337 21.4515 54.1337 23.1069C54.1337 24.7624 55.4757 26.1044 57.1311 26.1044Z" fill="#1C2739" style="fill:#1C2739;fill:color(display-p3 0.1098 0.1529 0.2235);fill-opacity:1;"/>
<path d="M84.1334 26.1091C85.7902 26.1091 87.1332 24.766 87.1332 23.1093C87.1332 21.4525 85.7902 20.1095 84.1334 20.1095C82.4767 20.1095 81.1337 21.4525 81.1337 23.1093C81.1337 24.766 82.4767 26.1091 84.1334 26.1091Z" fill="#1C2739" style="fill:#1C2739;fill:color(display-p3 0.1098 0.1529 0.2235);fill-opacity:1;"/>
<path d="M96.8585 32.3639C96.8037 34.5609 96.8248 36.5341 96.9219 38.2836C97.0251 40.1333 97.9672 40.9196 99.7479 40.6426C100.159 40.5792 100.534 40.3774 100.924 40.2459C101.026 40.2131 101.076 40.2498 101.076 40.3562L101.079 44.6494C101.079 44.73 101.053 44.8083 101.005 44.8726C100.957 44.937 100.89 44.9838 100.814 45.0061C99.4647 45.3942 98.0368 45.5092 96.5299 45.3512C93.1968 45.0014 91.8377 42.4007 91.7509 39.354C91.6867 37.1006 91.6781 34.8034 91.7251 32.4625C91.7257 32.4314 91.7202 32.4006 91.7088 32.3717C91.6974 32.3429 91.6804 32.3165 91.6588 32.2943C91.6372 32.272 91.6114 32.2543 91.5829 32.242C91.5544 32.2298 91.5237 32.2233 91.4927 32.223L89.291 32.209C89.2002 32.209 89.1548 32.1636 89.1548 32.0728L89.1337 27.8008C89.1321 27.7101 89.1775 27.6655 89.2698 27.667L91.5396 27.6905C91.5832 27.6905 91.625 27.6732 91.6558 27.6424C91.6866 27.6116 91.7039 27.5698 91.7039 27.5262L91.7133 23.2707C91.7133 23.1815 91.7548 23.1204 91.8377 23.0876L96.4782 21.2591C96.5236 21.2419 96.5573 21.2113 96.5792 21.1675C96.612 21.1034 96.6723 21.0924 96.7599 21.1347C96.7829 21.145 96.8024 21.1621 96.8161 21.1837C96.8299 21.2053 96.8372 21.2307 96.8374 21.2567L96.8444 27.5708C96.8444 27.6026 96.8573 27.633 96.8802 27.6555C96.903 27.6779 96.9341 27.6905 96.9665 27.6905L100.896 27.6764C100.92 27.6764 100.944 27.6812 100.966 27.6905C100.988 27.6999 101.008 27.7135 101.025 27.7307C101.042 27.748 101.056 27.7684 101.065 27.7909C101.074 27.8134 101.079 27.8375 101.079 27.8619L101.084 32.0634C101.084 32.1095 101.065 32.1537 101.033 32.1863C101 32.2188 100.956 32.2371 100.91 32.2371L97.0017 32.2254C96.9093 32.2254 96.8616 32.2716 96.8585 32.3639Z" fill="#1C2739" style="fill:#1C2739;fill:color(display-p3 0.1098 0.1529 0.2235);fill-opacity:1;"/>
<path d="M67.0697 28.5899C67.68 28.1885 68.3067 27.7402 68.9968 27.5101C71.5178 26.6722 74.4706 27.1487 76.4728 28.9396C79.036 31.2329 79.8481 34.8547 79.1557 38.1173C77.9609 43.7437 72.7196 46.3116 67.3866 44.5652C67.3718 44.5604 67.3561 44.5592 67.3407 44.5616C67.3253 44.564 67.3107 44.5701 67.2981 44.5792C67.2855 44.5884 67.2753 44.6004 67.2682 44.6143C67.2612 44.6282 67.2575 44.6435 67.2575 44.6591L67.2387 52.2079C67.2387 52.219 67.2366 52.2299 67.2325 52.2402C67.2284 52.2504 67.2223 52.2598 67.2147 52.2676C67.207 52.2755 67.198 52.2817 67.188 52.2859C67.1781 52.2902 67.1674 52.2924 67.1566 52.2924L62.2978 52.2806C62.2708 52.2806 62.2449 52.2698 62.2256 52.2505C62.2063 52.2312 62.1951 52.2049 62.1945 52.1773C62.1382 48.6549 62.121 45.2858 62.1429 42.0701C62.1757 37.209 62.1311 32.3502 62.1499 27.482C62.1499 27.3897 62.1961 27.3435 62.2884 27.3435H66.7388C66.7674 27.3435 66.7958 27.3493 66.8222 27.3606C66.8486 27.3718 66.8724 27.3884 66.8924 27.4092C66.9123 27.43 66.9279 27.4546 66.9382 27.4817C66.9485 27.5087 66.9533 27.5375 66.9524 27.5665L66.9125 28.5007C66.9078 28.6306 66.9602 28.6603 67.0697 28.5899ZM67.3796 39.6266C69.6494 40.7157 72.1562 40.3308 73.4167 38.0188C74.1326 36.702 74.0223 34.7702 73.2313 33.5027C72.441 32.2367 71.2791 31.6687 69.7456 31.7986C68.9264 31.8666 68.1307 32.3009 67.4429 32.7539C67.3852 32.7922 67.3379 32.8442 67.3051 32.9052C67.2724 32.9662 67.2552 33.0344 67.2552 33.1036V39.4342C67.2552 39.4741 67.267 39.5134 67.289 39.5474C67.311 39.5815 67.3424 39.609 67.3796 39.6266Z" fill="#1C2739" style="fill:#1C2739;fill:color(display-p3 0.1098 0.1529 0.2235);fill-opacity:1;"/>
<path d="M43.1962 36.1558C43.3167 36.4656 43.4318 36.464 43.5413 36.1511L46.6843 27.2222C46.6959 27.1892 46.7175 27.1606 46.7461 27.1404C46.7747 27.1202 46.8089 27.1094 46.8439 27.1095H52.0571C52.1666 27.1095 52.2018 27.1604 52.1627 27.2621L42.8794 51.8095C42.8152 51.9832 42.6908 52.0693 42.5062 52.0677L37.2718 52.049C37.1497 52.0474 37.1114 51.9903 37.1568 51.8776L40.7176 43.1553C40.7562 43.061 40.7755 42.9598 40.7743 42.8578C40.7731 42.7558 40.7514 42.655 40.7105 42.5614C38.792 38.1095 36.9205 33.7819 35.0959 29.5788C34.7548 28.7901 34.4379 28.0061 34.1453 27.2269C34.1155 27.1486 34.1429 27.1095 34.2274 27.1095H39.504C39.5567 27.1096 39.6082 27.1256 39.6517 27.1553C39.6953 27.185 39.7289 27.2271 39.7481 27.2762L43.1962 36.1558Z" fill="#1C2739" style="fill:#1C2739;fill:color(display-p3 0.1098 0.1529 0.2235);fill-opacity:1;"/>
<path d="M60.1028 27.1095H55.2393C55.181 27.1095 55.1337 27.1568 55.1337 27.2151V44.519C55.1337 44.5773 55.181 44.6246 55.2393 44.6246H60.1028C60.1611 44.6246 60.2084 44.5773 60.2084 44.519V27.2151C60.2084 27.1568 60.1611 27.1095 60.1028 27.1095Z" fill="#1C2739" style="fill:#1C2739;fill:color(display-p3 0.1098 0.1529 0.2235);fill-opacity:1;"/>
<path d="M87.1967 27.2527L87.1685 44.512C87.1685 44.545 87.1554 44.5766 87.1321 44.5999C87.1087 44.6233 87.0771 44.6364 87.0441 44.6364L82.2745 44.627C82.2415 44.627 82.2099 44.6139 82.1865 44.5905C82.1632 44.5672 82.1501 44.5356 82.1501 44.5026L82.1337 27.2339C82.1337 27.2009 82.1468 27.1693 82.1701 27.1459C82.1934 27.1226 82.2251 27.1095 82.2581 27.1095L87.0723 27.1283C87.1053 27.1283 87.1369 27.1414 87.1602 27.1647C87.1836 27.188 87.1967 27.2197 87.1967 27.2527Z" fill="#1C2739" style="fill:#1C2739;fill:color(display-p3 0.1098 0.1529 0.2235);fill-opacity:1;"/>
<path d="M106.134 27.1729C106.134 27.1561 106.14 27.1399 106.152 27.1281C106.164 27.1162 106.18 27.1095 106.197 27.1095H112.891C115.133 27.1095 117.283 27.9511 118.868 29.449C120.453 30.947 121.344 32.9787 121.344 35.0972V36.5384C121.344 38.6568 120.453 40.6885 118.868 42.1865C117.283 43.6845 115.133 44.5261 112.891 44.5261H106.197C106.18 44.5261 106.164 44.5194 106.152 44.5075C106.14 44.4956 106.134 44.4795 106.134 44.4627V27.1729ZM110.105 30.7407L110.14 40.8244C110.14 40.855 110.153 40.8842 110.174 40.9058C110.196 40.9273 110.225 40.9395 110.255 40.9395L112.497 40.9324C113.743 40.9279 114.937 40.4498 115.815 39.6033C116.693 38.7569 117.184 37.6113 117.18 36.4187L117.175 35.0995C117.173 34.5089 117.049 33.9244 116.811 33.3796C116.573 32.8347 116.225 32.3401 115.787 31.924C115.349 31.5079 114.83 31.1785 114.259 30.9545C113.688 30.7305 113.077 30.6164 112.459 30.6186L110.218 30.6257C110.188 30.6263 110.159 30.6387 110.138 30.6602C110.117 30.6817 110.105 30.7106 110.105 30.7407Z" fill="#1C2739" style="fill:#1C2739;fill:color(display-p3 0.1098 0.1529 0.2235);fill-opacity:1;"/>
<path d="M127.175 39.8269L125.396 44.4768C125.385 44.5038 125.367 44.527 125.343 44.5433C125.319 44.5596 125.291 44.5684 125.262 44.5683L121.276 44.5636C121.253 44.5635 121.231 44.5579 121.21 44.5472C121.19 44.5365 121.172 44.521 121.159 44.5022C121.146 44.4833 121.138 44.4615 121.135 44.4387C121.132 44.4159 121.135 44.3927 121.142 44.3711L127.414 27.2034C127.424 27.1756 127.443 27.1516 127.467 27.1348C127.492 27.118 127.521 27.1092 127.55 27.1095H132.062C132.091 27.1092 132.12 27.118 132.145 27.1348C132.169 27.1516 132.188 27.1756 132.198 27.2034L138.472 44.3711C138.48 44.3927 138.483 44.4159 138.48 44.4387C138.477 44.4615 138.468 44.4833 138.455 44.5022C138.442 44.521 138.425 44.5365 138.404 44.5472C138.384 44.5579 138.361 44.5635 138.338 44.5636L134.36 44.566C134.331 44.566 134.303 44.5573 134.279 44.541C134.255 44.5246 134.236 44.5014 134.226 44.4744L132.456 39.8269C132.446 39.7999 132.427 39.7767 132.403 39.7603C132.38 39.744 132.351 39.7353 132.322 39.7353H127.309C127.28 39.7353 127.251 39.744 127.228 39.7603C127.204 39.7767 127.185 39.7999 127.175 39.8269ZM128.236 36.2215C128.232 36.2324 128.231 36.244 128.233 36.2554C128.234 36.2668 128.239 36.2776 128.245 36.287C128.252 36.2964 128.261 36.3041 128.271 36.3094C128.281 36.3148 128.292 36.3176 128.304 36.3177L131.285 36.3318C131.296 36.332 131.308 36.3294 131.318 36.3243C131.328 36.3193 131.337 36.3119 131.344 36.3027C131.351 36.2936 131.355 36.283 131.357 36.2717C131.359 36.2604 131.359 36.2489 131.355 36.2379L129.891 31.4355C129.886 31.4208 129.877 31.4081 129.864 31.399C129.852 31.39 129.837 31.3851 129.821 31.3851C129.806 31.3851 129.791 31.39 129.779 31.399C129.766 31.4081 129.757 31.4208 129.752 31.4355L128.236 36.2215Z" fill="#1C2739" style="fill:#1C2739;fill:color(display-p3 0.1098 0.1529 0.2235);fill-opacity:1;"/>
<path d="M145.941 30.8299L145.938 44.4345C145.938 44.47 145.924 44.504 145.899 44.5291C145.874 44.5542 145.84 44.5683 145.804 44.5683L142.065 44.5636C142.048 44.5636 142.03 44.5601 142.014 44.5534C141.998 44.5467 141.983 44.5368 141.971 44.5244C141.958 44.512 141.948 44.4972 141.942 44.481C141.935 44.4648 141.931 44.4474 141.931 44.4298L141.938 30.8346C141.938 30.7991 141.924 30.7651 141.899 30.74C141.874 30.7149 141.84 30.7008 141.805 30.7008L137.291 30.6914C137.255 30.6914 137.221 30.6773 137.196 30.6522C137.171 30.6271 137.157 30.5931 137.157 30.5576L137.134 27.2503C137.134 27.2328 137.137 27.2154 137.144 27.1991C137.151 27.1829 137.16 27.1681 137.173 27.1557C137.185 27.1433 137.2 27.1334 137.216 27.1267C137.232 27.12 137.25 27.1165 137.267 27.1165L150.536 27.1095C150.572 27.1095 150.606 27.1236 150.631 27.1487C150.656 27.1738 150.67 27.2078 150.67 27.2433L150.668 30.567C150.668 30.5846 150.664 30.602 150.658 30.6182C150.651 30.6344 150.641 30.6492 150.629 30.6616C150.616 30.674 150.602 30.6839 150.585 30.6906C150.569 30.6973 150.552 30.7008 150.534 30.7008L146.074 30.6961C146.057 30.6961 146.039 30.6995 146.023 30.7063C146.007 30.713 145.992 30.7228 145.98 30.7353C145.967 30.7477 145.957 30.7624 145.951 30.7787C145.944 30.7949 145.941 30.8123 145.941 30.8299Z" fill="#1C2739" style="fill:#1C2739;fill:color(display-p3 0.1098 0.1529 0.2235);fill-opacity:1;"/>
<path d="M153.273 44.5706L149.281 44.5636C149.257 44.5639 149.234 44.5584 149.213 44.5478C149.192 44.5371 149.174 44.5215 149.161 44.5024C149.147 44.4833 149.138 44.4611 149.135 44.4378C149.132 44.4146 149.134 44.3909 149.142 44.3688L155.428 27.2057C155.438 27.1777 155.457 27.1534 155.481 27.1362C155.505 27.119 155.535 27.1097 155.564 27.1095H160.073C160.103 27.1097 160.132 27.119 160.157 27.1362C160.181 27.1534 160.199 27.1777 160.21 27.2057L166.484 44.3711C166.492 44.3932 166.494 44.4169 166.491 44.4402C166.488 44.4635 166.479 44.4856 166.465 44.5047C166.452 44.5239 166.434 44.5395 166.413 44.5501C166.392 44.5608 166.369 44.5662 166.345 44.566L162.371 44.5636C162.342 44.5636 162.313 44.5546 162.289 44.5379C162.264 44.5211 162.246 44.4973 162.235 44.4697L160.463 39.8269C160.453 39.7992 160.434 39.7755 160.41 39.7587C160.385 39.7419 160.356 39.733 160.327 39.733L155.316 39.7377C155.286 39.7377 155.257 39.7466 155.233 39.7634C155.209 39.7802 155.19 39.8039 155.179 39.8316L153.41 44.4768C153.399 44.5044 153.38 44.5281 153.356 44.5449C153.332 44.5617 153.303 44.5707 153.273 44.5706ZM156.245 36.2192C156.241 36.2305 156.24 36.2427 156.242 36.2545C156.244 36.2664 156.249 36.2776 156.256 36.2872C156.263 36.2969 156.272 36.3047 156.283 36.31C156.294 36.3153 156.306 36.318 156.318 36.3177L159.296 36.3318C159.308 36.3316 159.319 36.3287 159.33 36.3233C159.34 36.318 159.349 36.3104 159.355 36.3011C159.362 36.2918 159.367 36.281 159.369 36.2697C159.371 36.2583 159.37 36.2466 159.367 36.2356L157.905 31.4566C157.9 31.4414 157.89 31.4281 157.877 31.4187C157.864 31.4093 157.849 31.4042 157.833 31.4042C157.817 31.4042 157.801 31.4093 157.789 31.4187C157.776 31.4281 157.766 31.4414 157.761 31.4566L156.245 36.2192Z" fill="#1C2739" style="fill:#1C2739;fill:color(display-p3 0.1098 0.1529 0.2235);fill-opacity:1;"/>
</svg>
